<svg width="167" height="50" viewBox="0 0 167 50" fill="none" xmlns="http://www.w3.org/2000/svg">
<rect width="167" height="50" rx="25" fill="white"/>
<path fill-rule="evenodd" clip-rule="evenodd" d="M82.2099 17.9998H81.2699V10.7598H82.2099V17.9998ZM54.8999 17.9998H57.3599C58.3132 17.9998 59.1166 17.6881 59.7699 17.0648C60.4232 16.4414 60.7499 15.5764 60.7499 14.4698C60.7499 13.3564 60.4266 12.4848 59.7799 11.8548C59.1332 11.2248 58.3332 10.9098 57.3799 10.9098H54.8999V17.9998ZM57.3299 17.1298H55.8799V11.7798H57.3499C58.0432 11.7798 58.6149 12.0131 59.0649 12.4798C59.5149 12.9464 59.7399 13.6098 59.7399 14.4698C59.7399 15.3231 59.5116 15.9798 59.0549 16.4398C58.5982 16.8998 58.0232 17.1298 57.3299 17.1298ZM62.9899 16.8598C63.2832 17.1598 63.6399 17.3098 64.0599 17.3098C64.4799 17.3098 64.8349 17.1581 65.1249 16.8548C65.4149 16.5514 65.5599 16.1298 65.5599 15.5898C65.5599 15.0564 65.4149 14.6381 65.1249 14.3348C64.8349 14.0314 64.4799 13.8798 64.0599 13.8798C63.6399 13.8798 63.2849 14.0314 62.9949 14.3348C62.7049 14.6381 62.5599 15.0564 62.5599 15.5898C62.5599 16.1298 62.7032 16.5531 62.9899 16.8598ZM64.0599 13.0398C63.3466 13.0398 62.7566 13.2831 62.2899 13.7698C61.8299 14.2498 61.5999 14.8564 61.5999 15.5898C61.5999 16.3298 61.8299 16.9414 62.2899 17.4248C62.7499 17.9081 63.3399 18.1498 64.0599 18.1498C64.7799 18.1498 65.3699 17.9081 65.8299 17.4248C66.2899 16.9414 66.5199 16.3298 66.5199 15.5898C66.5199 14.8564 66.2882 14.2481 65.8249 13.7648C65.3616 13.2814 64.7732 13.0398 64.0599 13.0398ZM70.4299 13.1898H71.3999L72.6499 16.8098L73.7099 13.1898H74.6999L73.1399 17.9998H72.1699L70.8899 14.3398L69.6399 17.9998H68.6499L67.0699 13.1898H68.0999L69.1799 16.8098L70.4299 13.1898ZM76.5899 17.9998V15.2198C76.5899 14.8398 76.6882 14.5248 76.8849 14.2748C77.0816 14.0248 77.3566 13.8998 77.7099 13.8998C78.4566 13.8998 78.8299 14.3031 78.8299 15.1098V17.9998H79.7699V14.9498C79.7699 14.3898 79.6216 13.9331 79.3249 13.5798C79.0282 13.2264 78.6032 13.0498 78.0499 13.0498C77.3832 13.0498 76.8899 13.3264 76.5699 13.8798V13.1898H75.6499V17.9998H76.5899ZM85.8699 17.3098C85.4499 17.3098 85.0932 17.1598 84.7999 16.8598C84.5132 16.5531 84.3699 16.1298 84.3699 15.5898C84.3699 15.0564 84.5149 14.6381 84.8049 14.3348C85.0949 14.0314 85.4499 13.8798 85.8699 13.8798C86.2899 13.8798 86.6449 14.0314 86.9349 14.3348C87.2249 14.6381 87.3699 15.0564 87.3699 15.5898C87.3699 16.1298 87.2249 16.5514 86.9349 16.8548C86.6449 17.1581 86.2899 17.3098 85.8699 17.3098ZM84.0999 13.7698C84.5666 13.2831 85.1566 13.0398 85.8699 13.0398C86.5832 13.0398 87.1716 13.2814 87.6349 13.7648C88.0982 14.2481 88.3299 14.8564 88.3299 15.5898C88.3299 16.3298 88.0999 16.9414 87.6399 17.4248C87.1799 17.9081 86.5899 18.1498 85.8699 18.1498C85.1499 18.1498 84.5599 17.9081 84.0999 17.4248C83.6399 16.9414 83.4099 16.3298 83.4099 15.5898C83.4099 14.8564 83.6399 14.2498 84.0999 13.7698ZM89.6299 15.7148C89.3632 15.9648 89.2299 16.2964 89.2299 16.7098C89.2299 17.1031 89.3799 17.4414 89.6799 17.7248C89.9799 18.0081 90.3666 18.1498 90.8399 18.1498C91.2266 18.1498 91.5482 18.0698 91.8049 17.9098C92.0616 17.7498 92.2566 17.5631 92.3899 17.3498C92.3899 17.5831 92.4066 17.7998 92.4399 17.9998H93.3599C93.3199 17.7598 93.2999 17.4964 93.2999 17.2098V14.7998C93.2999 14.2864 93.1366 13.8648 92.8099 13.5348C92.4832 13.2048 91.9799 13.0398 91.2999 13.0398C90.7799 13.0398 90.3332 13.1848 89.9599 13.4748C89.5866 13.7648 89.3766 14.1398 89.3299 14.5998L90.2299 14.8098C90.2632 14.5164 90.3732 14.2814 90.5599 14.1048C90.7466 13.9281 90.9999 13.8398 91.3199 13.8398C91.6666 13.8398 91.9266 13.9198 92.0999 14.0798C92.2732 14.2398 92.3599 14.4464 92.3599 14.6998C92.3599 14.9064 92.2366 15.0264 91.9899 15.0598L90.6899 15.2498C90.2499 15.3098 89.8966 15.4648 89.6299 15.7148ZM90.9699 17.3598C91.3899 17.3598 91.7266 17.2464 91.9799 17.0198C92.2332 16.7931 92.3599 16.4331 92.3599 15.9398V15.7198L90.8899 15.9398C90.6766 15.9731 90.5066 16.0498 90.3799 16.1698C90.2532 16.2898 90.1899 16.4531 90.1899 16.6598C90.1899 16.8464 90.2616 17.0098 90.4049 17.1498C90.5482 17.2898 90.7366 17.3598 90.9699 17.3598ZM95.6949 16.8198C95.4449 16.4998 95.3199 16.0864 95.3199 15.5798C95.3199 15.0798 95.4499 14.6731 95.7099 14.3598C95.9699 14.0464 96.3132 13.8898 96.7399 13.8898C97.1666 13.8898 97.5032 14.0431 97.7499 14.3498C97.9966 14.6564 98.1199 15.0598 98.1199 15.5598C98.1199 16.0664 97.9932 16.4831 97.7399 16.8098C97.4866 17.1364 97.1499 17.2998 96.7299 17.2998C96.2899 17.2998 95.9449 17.1398 95.6949 16.8198ZM98.133 17.5291L98.1299 17.2698C98.0032 17.5164 97.8116 17.7214 97.5549 17.8848C97.2982 18.0481 96.9932 18.1298 96.6399 18.1298C95.9532 18.1298 95.4016 17.8881 94.9849 17.4048C94.5682 16.9214 94.3599 16.3131 94.3599 15.5798C94.3599 14.8798 94.5732 14.2848 94.9999 13.7948C95.4266 13.3048 95.9732 13.0598 96.6399 13.0598C97.0332 13.0598 97.3532 13.1381 97.5999 13.2948C97.8466 13.4514 98.0166 13.6431 98.1099 13.8698V10.7598H99.0399V17.1098C99.0399 17.4364 99.0566 17.7331 99.0899 17.9998H98.1799C98.1549 17.8598 98.1393 17.7029 98.133 17.5291ZM105.2 17.3098C104.78 17.3098 104.423 17.1598 104.13 16.8598C103.843 16.5531 103.7 16.1298 103.7 15.5898C103.7 15.0564 103.845 14.6381 104.135 14.3348C104.425 14.0314 104.78 13.8798 105.2 13.8798C105.62 13.8798 105.975 14.0314 106.265 14.3348C106.555 14.6381 106.7 15.0564 106.7 15.5898C106.7 16.1298 106.555 16.5514 106.265 16.8548C105.975 17.1581 105.62 17.3098 105.2 17.3098ZM103.43 13.7698C103.897 13.2831 104.487 13.0398 105.2 13.0398C105.913 13.0398 106.502 13.2814 106.965 13.7648C107.428 14.2481 107.66 14.8564 107.66 15.5898C107.66 16.3298 107.43 16.9414 106.97 17.4248C106.51 17.9081 105.92 18.1498 105.2 18.1498C104.48 18.1498 103.89 17.9081 103.43 17.4248C102.97 16.9414 102.74 16.3298 102.74 15.5898C102.74 14.8564 102.97 14.2498 103.43 13.7698ZM109.8 17.9998V15.2198C109.8 14.8398 109.898 14.5248 110.095 14.2748C110.292 14.0248 110.567 13.8998 110.92 13.8998C111.667 13.8998 112.04 14.3031 112.04 15.1098V17.9998H112.98V14.9498C112.98 14.3898 112.832 13.9331 112.535 13.5798C112.238 13.2264 111.813 13.0498 111.26 13.0498C110.593 13.0498 110.1 13.3264 109.78 13.8798V13.1898H108.86V17.9998H109.8ZM118.24 11.6698V13.1898H119.28V14.0398H118.24V16.5398C118.24 16.7664 118.292 16.9331 118.395 17.0398C118.498 17.1464 118.67 17.1998 118.91 17.1998C119.05 17.1998 119.173 17.1864 119.28 17.1598V17.9598C119.12 18.0198 118.907 18.0498 118.64 18.0498C118.227 18.0498 117.9 17.9298 117.66 17.6898C117.42 17.4498 117.3 17.1131 117.3 16.6798V14.0398H116.38V13.1898H116.64C116.887 13.1898 117.072 13.1214 117.195 12.9848C117.318 12.8481 117.38 12.6698 117.38 12.4498V11.6698H118.24ZM121.47 17.9998V15.1698C121.483 14.7964 121.587 14.4914 121.78 14.2548C121.973 14.0181 122.243 13.8998 122.59 13.8998C123.337 13.8998 123.71 14.3031 123.71 15.1098V17.9998H124.65V14.9498C124.65 14.3898 124.502 13.9331 124.205 13.5798C123.908 13.2264 123.483 13.0498 122.93 13.0498C122.277 13.0498 121.79 13.2831 121.47 13.7498V10.7598H120.53V17.9998H121.47ZM126.76 15.0998H129.39C129.377 14.7398 129.257 14.4448 129.03 14.2148C128.803 13.9848 128.483 13.8698 128.07 13.8698C127.697 13.8698 127.39 13.9914 127.15 14.2348C126.91 14.4781 126.78 14.7664 126.76 15.0998ZM130.34 16.6298L129.53 16.3498C129.317 16.9964 128.867 17.3198 128.18 17.3198C127.773 17.3198 127.432 17.1831 127.155 16.9098C126.878 16.6364 126.737 16.2864 126.73 15.8598H130.35C130.363 15.7798 130.37 15.6798 130.37 15.5598C130.37 14.7931 130.167 14.1814 129.76 13.7248C129.353 13.2681 128.787 13.0398 128.06 13.0398C127.433 13.0398 126.893 13.2798 126.44 13.7598C125.987 14.2398 125.76 14.8464 125.76 15.5798C125.76 16.3664 125.995 16.9914 126.465 17.4548C126.935 17.9181 127.507 18.1498 128.18 18.1498C128.72 18.1498 129.18 18.0081 129.56 17.7248C129.94 17.4414 130.2 17.0764 130.34 16.6298Z" fill="black"/>
<path fill-rule="evenodd" clip-rule="evenodd" d="M63.1199 37H65.2159L60.7999 25.656H58.5759L54.1599 37H56.1919L57.2479 34.152H62.0479L63.1199 37ZM59.6479 27.736L61.3759 32.376H57.9199L59.6479 27.736ZM68.4159 40.04V36.12C68.8159 36.712 69.6639 37.192 70.7839 37.192C73.0239 37.192 74.4479 35.432 74.4479 33.096C74.4479 30.792 73.1519 29.032 70.8479 29.032C69.6479 29.032 68.7519 29.592 68.3679 30.264V29.208H66.5759V40.04H68.4159ZM72.5919 33.096C72.5919 34.584 71.7279 35.544 70.4959 35.544C69.2799 35.544 68.3999 34.584 68.3999 33.096C68.3999 31.64 69.2799 30.68 70.4959 30.68C71.7439 30.68 72.5919 31.64 72.5919 33.096ZM78.0799 40.04V36.12C78.4799 36.712 79.3279 37.192 80.4479 37.192C82.6879 37.192 84.1119 35.432 84.1119 33.096C84.1119 30.792 82.8159 29.032 80.5119 29.032C79.3119 29.032 78.4159 29.592 78.0319 30.264V29.208H76.2399V40.04H78.0799ZM82.2559 33.096C82.2559 34.584 81.3919 35.544 80.1599 35.544C78.9439 35.544 78.0639 34.584 78.0639 33.096C78.0639 31.64 78.9439 30.68 80.1599 30.68C81.4079 30.68 82.2559 31.64 82.2559 33.096ZM97.4879 28.312C97.2319 27.048 96.1919 25.416 93.5199 25.416C91.4079 25.416 89.6639 26.984 89.6639 28.888C89.6639 30.584 90.8159 31.72 92.5439 32.072L94.1439 32.408C95.1199 32.616 95.6639 33.208 95.6639 33.944C95.6639 34.824 94.9599 35.512 93.5999 35.512C91.9679 35.512 91.1199 34.424 91.0079 33.24L89.2159 33.752C89.3919 35.384 90.7199 37.24 93.5999 37.24C96.1919 37.24 97.6159 35.56 97.6159 33.8C97.6159 32.2 96.5439 30.936 94.5439 30.536L92.9119 30.2C92.0319 30.008 91.5839 29.464 91.5839 28.744C91.5839 27.88 92.3839 27.112 93.5359 27.112C95.0559 27.112 95.6479 28.152 95.7599 28.856L97.4879 28.312ZM101.808 26.824H100.128V27.992C100.128 28.68 99.7599 29.208 98.9279 29.208H98.5279V30.856H99.9679V34.776C99.9679 36.232 100.864 37.096 102.304 37.096C102.976 37.096 103.328 36.968 103.44 36.92V35.384L103.235 35.4159C103.108 35.4323 102.946 35.448 102.8 35.448C102.112 35.448 101.808 35.16 101.808 34.472V30.856H103.424V29.208H101.808V26.824ZM108.72 35.576C107.584 35.576 106.544 34.712 106.544 33.096C106.544 31.48 107.584 30.648 108.72 30.648C109.872 30.648 110.896 31.48 110.896 33.096C110.896 34.728 109.872 35.576 108.72 35.576ZM108.72 28.968C106.4 28.968 104.688 30.712 104.688 33.096C104.688 35.496 106.4 37.24 108.72 37.24C111.056 37.24 112.768 35.496 112.768 33.096C112.768 30.712 111.056 28.968 108.72 28.968ZM119.12 29.16C119.04 29.144 118.848 29.112 118.624 29.112C117.6 29.112 116.736 29.608 116.368 30.456V29.208H114.56V37H116.416V33.288C116.416 31.832 117.072 31 118.512 31C118.704 31 118.912 31.016 119.12 31.048V29.16ZM121.936 32.248C122 31.416 122.672 30.52 123.84 30.52C125.12 30.52 125.728 31.336 125.76 32.248H121.936ZM125.968 34.28L127.536 34.776C127.12 36.136 125.888 37.24 124.016 37.24C121.904 37.24 120.032 35.704 120.032 33.064C120.032 30.6 121.856 28.968 123.824 28.968C126.224 28.968 127.632 30.552 127.632 33.016C127.632 33.32 127.6 33.576 127.584 33.608H121.888C121.936 34.792 122.864 35.64 124.016 35.64C125.136 35.64 125.712 35.048 125.968 34.28Z" fill="black"/>
<path fill-rule="evenodd" clip-rule="evenodd" d="M31.3938 14.5376C32.263 13.6005 32.8511 12.2986 32.6906 11C31.4371 11.0451 29.9185 11.7405 29.0204 12.6773C28.2133 13.5075 27.5079 14.8334 27.6963 16.1059C29.0955 16.2022 30.5228 15.4737 31.3938 14.5376ZM34.0616 23.502C34.0346 20.5912 36.3495 19.1944 36.4534 19.1258C35.1524 17.1502 33.125 16.8795 32.4037 16.8493C30.6791 16.6669 29.0385 17.902 28.1625 17.902C27.2897 17.902 25.9395 16.8737 24.5086 16.9009C22.628 16.9318 20.8947 18.035 19.9278 19.7834C17.974 23.3 19.4266 28.5109 21.3313 31.3629C22.2618 32.7597 23.3706 34.3261 24.8264 34.269C26.2303 34.2131 26.7604 33.3279 28.4561 33.3279C30.1509 33.3279 30.6278 34.269 32.1111 34.2407C33.6204 34.2131 34.5769 32.8174 35.5009 31.4171C36.5685 29.7983 37.008 28.23 37.0347 28.1505C37.0008 28.133 34.0923 26.979 34.0616 23.502Z" fill="black"/>
</svg>
