<svg width="150" height="150" viewBox="0 0 150 150" fill="none" xmlns="http://www.w3.org/2000/svg">
<path d="M74.9414 11.1768C38.7158 11.1621 9.375 40.4883 9.375 76.6846C9.375 105.308 27.7295 129.639 53.291 138.574C56.7334 139.438 56.2061 136.992 56.2061 135.322V123.97C36.3281 126.299 35.5225 113.145 34.1895 110.947C31.4941 106.348 25.1221 105.176 27.0264 102.979C31.5527 100.649 36.167 103.564 41.5137 111.46C45.3809 117.188 52.9248 116.221 56.748 115.269C57.583 111.826 59.3701 108.75 61.8311 106.362C41.2354 102.671 32.6514 90.1025 32.6514 75.1611C32.6514 67.9102 35.0391 61.2451 39.7266 55.8691C36.7383 47.0068 40.0049 39.4189 40.4443 38.291C48.9551 37.5293 57.8027 44.3848 58.4912 44.9268C63.3252 43.6231 68.8477 42.9346 75.0293 42.9346C81.2402 42.9346 86.7773 43.6523 91.6553 44.9707C93.3105 43.7109 101.514 37.8223 109.424 38.54C109.849 39.668 113.042 47.0801 110.229 55.8252C114.976 61.2158 117.393 67.9395 117.393 75.2051C117.393 90.1758 108.75 102.759 88.0957 106.392C89.8648 108.131 91.2695 110.206 92.2277 112.495C93.186 114.784 93.6786 117.24 93.6768 119.722V136.201C93.7939 137.52 93.6768 138.823 95.874 138.823C121.816 130.078 140.493 105.571 140.493 76.6992C140.493 40.4883 111.138 11.1768 74.9414 11.1768Z" fill="white"/>
</svg>
