<svg width="169" height="52" viewBox="0 0 169 52" fill="none" xmlns="http://www.w3.org/2000/svg">
<rect x="0.75" y="0.75" width="167.5" height="50.5" rx="25.25" stroke="white" stroke-width="0.5"/>
<rect x="1" y="1" width="167" height="50" rx="25" fill="black"/>
<path fill-rule="evenodd" clip-rule="evenodd" d="M74.7102 13.3699C74.7102 13.5566 74.7735 13.7166 74.9002 13.8499C75.0335 13.9766 75.1935 14.0399 75.3802 14.0399C75.5669 14.0399 75.7269 13.9749 75.8602 13.8449C75.9935 13.7149 76.0602 13.5566 76.0602 13.3699C76.0602 13.1766 75.9935 13.0149 75.8602 12.8849C75.7269 12.7549 75.5669 12.6899 75.3802 12.6899C75.1935 12.6899 75.0352 12.7566 74.9052 12.8899C74.7752 13.0233 74.7102 13.1833 74.7102 13.3699ZM61.2502 19.9999H62.0402V16.5299H58.6502V17.4099H61.1102C61.0969 17.6099 61.0485 17.8099 60.9652 18.0099C60.8819 18.2099 60.7585 18.4083 60.5952 18.6049C60.4319 18.8016 60.2052 18.9599 59.9152 19.0799C59.6252 19.1999 59.2935 19.2599 58.9202 19.2599C58.2402 19.2599 57.6585 19.0149 57.1752 18.5249C56.6919 18.0349 56.4502 17.3433 56.4502 16.4499C56.4502 15.5633 56.6969 14.8766 57.1902 14.3899C57.6835 13.9033 58.2735 13.6599 58.9602 13.6599C59.5069 13.6599 59.9785 13.8016 60.3752 14.0849C60.7719 14.3683 61.0502 14.7666 61.2102 15.2799L62.1002 14.8999C61.8935 14.2533 61.5085 13.7349 60.9452 13.3449C60.3819 12.9549 59.7202 12.7599 58.9602 12.7599C58.3602 12.7599 57.7985 12.8966 57.2752 13.1699C56.7519 13.4433 56.3169 13.8666 55.9702 14.4399C55.6235 15.0133 55.4502 15.6833 55.4502 16.4499C55.4502 17.2166 55.6152 17.8866 55.9452 18.4599C56.2752 19.0333 56.6969 19.4583 57.2102 19.7349C57.7235 20.0116 58.2835 20.1499 58.8902 20.1499C59.4435 20.1499 59.9169 20.0366 60.3102 19.8099C60.7035 19.5833 60.9869 19.3133 61.1602 18.9999L61.2502 19.9999ZM66.6902 17.0999H64.0602C64.0802 16.7666 64.2102 16.4783 64.4502 16.2349C64.6902 15.9916 64.9969 15.8699 65.3702 15.8699C65.7835 15.8699 66.1035 15.9849 66.3302 16.2149C66.5569 16.4449 66.6769 16.7399 66.6902 17.0999ZM66.8302 18.3499L67.6402 18.6299C67.5002 19.0766 67.2402 19.4416 66.8602 19.7249C66.4802 20.0083 66.0202 20.1499 65.4802 20.1499C64.8069 20.1499 64.2352 19.9183 63.7652 19.4549C63.2952 18.9916 63.0602 18.3666 63.0602 17.5799C63.0602 16.8466 63.2869 16.2399 63.7402 15.7599C64.1935 15.2799 64.7335 15.0399 65.3602 15.0399C66.0869 15.0399 66.6535 15.2683 67.0602 15.7249C67.4669 16.1816 67.6702 16.7933 67.6702 17.5599C67.6702 17.6799 67.6635 17.7799 67.6502 17.8599H64.0302C64.0369 18.2866 64.1785 18.6366 64.4552 18.9099C64.7319 19.1833 65.0735 19.3199 65.4802 19.3199C66.1669 19.3199 66.6169 18.9966 66.8302 18.3499ZM70.1302 15.1899V13.6699H69.2702V14.4499C69.2702 14.6699 69.2085 14.8483 69.0852 14.9849C68.9619 15.1216 68.7769 15.1899 68.5302 15.1899H68.2702V16.0399H69.1902V18.6799C69.1902 19.1133 69.3102 19.4499 69.5502 19.6899C69.7902 19.9299 70.1169 20.0499 70.5302 20.0499C70.7969 20.0499 71.0102 20.0199 71.1702 19.9599V19.1599C71.0635 19.1866 70.9402 19.1999 70.8002 19.1999C70.5602 19.1999 70.3885 19.1466 70.2852 19.0399C70.1819 18.9333 70.1302 18.7666 70.1302 18.5399V16.0399H71.1702V15.1899H70.1302ZM75.8502 19.9999H74.9202V15.1899H75.8502V19.9999ZM78.7102 13.6699V15.1899H79.7502V16.0399H78.7102V18.5399C78.7102 18.7666 78.7619 18.9333 78.8652 19.0399C78.9685 19.1466 79.1402 19.1999 79.3802 19.1999C79.5202 19.1999 79.6435 19.1866 79.7502 19.1599V19.9599C79.5902 20.0199 79.3769 20.0499 79.1102 20.0499C78.6969 20.0499 78.3702 19.9299 78.1302 19.6899C77.8902 19.4499 77.7702 19.1133 77.7702 18.6799V16.0399H76.8502V15.1899H77.1102C77.3569 15.1899 77.5419 15.1216 77.6652 14.9849C77.7885 14.8483 77.8502 14.6699 77.8502 14.4499V13.6699H78.7102ZM85.5602 19.3099C85.1402 19.3099 84.7835 19.1599 84.4902 18.8599C84.2035 18.5533 84.0602 18.1299 84.0602 17.5899C84.0602 17.0566 84.2052 16.6383 84.4952 16.3349C84.7852 16.0316 85.1402 15.8799 85.5602 15.8799C85.9802 15.8799 86.3352 16.0316 86.6252 16.3349C86.9152 16.6383 87.0602 17.0566 87.0602 17.5899C87.0602 18.1299 86.9152 18.5516 86.6252 18.8549C86.3352 19.1583 85.9802 19.3099 85.5602 19.3099ZM83.7902 15.7699C84.2569 15.2833 84.8469 15.0399 85.5602 15.0399C86.2735 15.0399 86.8619 15.2816 87.3252 15.7649C87.7885 16.2483 88.0202 16.8566 88.0202 17.5899C88.0202 18.3299 87.7902 18.9416 87.3302 19.4249C86.8702 19.9083 86.2802 20.1499 85.5602 20.1499C84.8402 20.1499 84.2502 19.9083 83.7902 19.4249C83.3302 18.9416 83.1002 18.3299 83.1002 17.5899C83.1002 16.8566 83.3302 16.2499 83.7902 15.7699ZM90.1602 19.9999V17.2199C90.1602 16.8399 90.2585 16.5249 90.4552 16.2749C90.6519 16.0249 90.9269 15.8999 91.2802 15.8999C92.0269 15.8999 92.4002 16.3033 92.4002 17.1099V19.9999H93.3402V16.9499C93.3402 16.3899 93.1919 15.9333 92.8952 15.5799C92.5985 15.2266 92.1735 15.0499 91.6202 15.0499C90.9535 15.0499 90.4602 15.3266 90.1402 15.8799V15.1899H89.2202V19.9999H90.1602Z" fill="white"/>
<path fill-rule="evenodd" clip-rule="evenodd" d="M66.4239 31.256V37H64.8719L64.7279 35.56C64.2319 36.392 63.0639 37.24 61.2559 37.24C58.2959 37.24 55.6719 35.064 55.6719 31.32C55.6719 27.592 58.4399 25.416 61.3839 25.416C64.1359 25.416 65.8959 27 66.5039 28.872L64.6959 29.56C64.3119 28.28 63.1919 27.192 61.3839 27.192C59.5439 27.192 57.6239 28.504 57.6239 31.32C57.6239 34.088 59.4159 35.48 61.3679 35.48C63.6559 35.48 64.5199 33.912 64.6159 32.936H60.8719V31.256H66.4239ZM69.8319 33.096C69.8319 34.712 70.8719 35.576 72.0079 35.576C73.1599 35.576 74.1839 34.728 74.1839 33.096C74.1839 31.48 73.1599 30.648 72.0079 30.648C70.8719 30.648 69.8319 31.48 69.8319 33.096ZM72.0079 28.968C69.6879 28.968 67.9759 30.712 67.9759 33.096C67.9759 35.496 69.6879 37.24 72.0079 37.24C74.3439 37.24 76.0559 35.496 76.0559 33.096C76.0559 30.712 74.3439 28.968 72.0079 28.968ZM79.0959 33.096C79.0959 34.712 80.1359 35.576 81.2719 35.576C82.4239 35.576 83.4479 34.728 83.4479 33.096C83.4479 31.48 82.4239 30.648 81.2719 30.648C80.1359 30.648 79.0959 31.48 79.0959 33.096ZM81.2719 28.968C78.9519 28.968 77.2399 30.712 77.2399 33.096C77.2399 35.496 78.9519 37.24 81.2719 37.24C83.6079 37.24 85.3199 35.496 85.3199 33.096C85.3199 30.712 83.6079 28.968 81.2719 28.968ZM90.2639 40.28C88.1999 40.28 86.7599 39 86.5519 37.432L88.2639 36.984C88.3919 37.944 89.1439 38.664 90.2159 38.664C91.6879 38.664 92.4239 37.912 92.4239 36.328V35.512C92.0879 36.12 91.3039 36.648 90.1679 36.648C88.0879 36.648 86.5679 35.048 86.5679 32.856C86.5679 30.776 88.0239 29.064 90.1679 29.064C91.3839 29.064 92.1359 29.56 92.4719 30.2V29.208H94.2639V36.264C94.2639 38.344 93.1919 40.28 90.2639 40.28ZM90.4719 35.064C89.2559 35.064 88.4399 34.216 88.4399 32.856C88.4399 31.528 89.2879 30.664 90.4719 30.664C91.6239 30.664 92.4719 31.528 92.4719 32.856C92.4719 34.2 91.6559 35.064 90.4719 35.064ZM98.3919 25.416V37H96.5359V25.416H98.3919ZM102.088 32.248C102.152 31.416 102.824 30.52 103.992 30.52C105.272 30.52 105.88 31.336 105.912 32.248H102.088ZM104.168 35.64C105.288 35.64 105.864 35.048 106.12 34.28L107.688 34.776C107.272 36.136 106.04 37.24 104.168 37.24C102.056 37.24 100.184 35.704 100.184 33.064C100.184 30.6 102.008 28.968 103.976 28.968C106.376 28.968 107.784 30.552 107.784 33.016C107.784 33.32 107.752 33.576 107.736 33.608H102.04C102.088 34.792 103.016 35.64 104.168 35.64ZM115.608 30.872V27.352H117.608C118.824 27.352 119.56 28.04 119.56 29.128C119.56 30.2 118.824 30.872 117.608 30.872H115.608ZM121.512 29.112C121.512 31.112 120.072 32.568 117.896 32.568H115.608V37H113.688V25.656H117.896C120.072 25.656 121.512 27.128 121.512 29.112ZM125.016 37V25.416H123.16V37H125.016ZM129.576 37.24C127.944 37.24 126.936 36.12 126.936 34.888C126.936 33.496 127.96 32.728 129.288 32.536L131.288 32.232C131.736 32.168 131.864 31.944 131.864 31.672C131.864 31.016 131.416 30.488 130.392 30.488C129.416 30.488 128.872 31.112 128.792 31.896L127.096 31.512C127.24 30.168 128.456 28.968 130.376 28.968C132.776 28.968 133.688 30.328 133.688 31.88L133.689 35.9229C133.697 36.3097 133.727 36.6107 133.752 36.7973L133.784 37H132.056C132.04 36.952 131.976 36.632 131.976 36.008C131.608 36.6 130.84 37.24 129.576 37.24ZM129.928 35.784C129.192 35.784 128.792 35.304 128.792 34.776C128.792 34.136 129.256 33.816 129.832 33.72L131.864 33.416V33.768C131.864 35.288 130.968 35.784 129.928 35.784ZM136.312 40.152H138.296L143.256 29.208H141.288L139.192 34.136L136.952 29.208H134.856L138.184 36.072L136.312 40.152Z" fill="white"/>
<path d="M21.0958 15.1294C21.0395 15.33 21 15.5453 21 15.792V36.1065C21 36.3499 21.038 36.564 21.0932 36.762L32.4206 25.9601L21.0958 15.1294Z" fill="#48A0DC"/>
<path d="M23.6163 14.3403C23.089 14.0167 22.5693 13.9357 22.1304 14.0474L33.5051 24.9262L36.8417 21.7451L23.6163 14.3403Z" fill="#88C057"/>
<path d="M41.7172 24.4752L38.1867 22.4985L34.5713 25.9463L38.2546 29.4698L41.69 27.5712C43.3653 26.61 42.7534 25.0613 41.7172 24.4752Z" fill="#FFCC66"/>
<path d="M33.4866 26.9795L22.0977 37.8387C22.5432 37.9644 23.075 37.8897 23.6157 37.5579L36.8824 30.227L33.4866 26.9795Z" fill="#ED7161"/>
</svg>
