<svg width="375" height="923" viewBox="0 0 375 923" fill="none" xmlns="http://www.w3.org/2000/svg">
<path d="M970 -149H-542V923H970V-149Z" fill="black" stroke="black" stroke-width="0.979847" stroke-miterlimit="10"/>
<path d="M-516.234 -100.344C-464.259 -25.0405 -344.953 -156.968 -291.797 -159.303C-239.934 -161.58 -262.62 -34.3806 -132.328 -34.9643C-59.6813 -35.2912 -26.6063 -248.617 108.647 -266.13C243.9 -283.642 201.67 -252.995 201.67 -217.97C201.67 -182.945 155.306 -179.151 170.662 -118.441C190.295 -40.8193 379.744 8.81702 336.628 -127.197C293.513 -263.211 352.575 -216.511 398.348 -224.391C420.904 -228.273 457.706 -149.304 505.842 -170.686C553.978 -192.069 522.38 -339.39 682.144 -270.216C829.251 -206.523 942.314 -207.463 967.711 -251.244C993.108 -295.025 1064.28 -479.782 1064.28 -479.782L1030.61 -865.058L-584.156 -887.241L-551.081 -82.8318L-516.234 -100.344Z" fill="black"/>
<path d="M-577.096 658.726C-525.135 736.885 -405.86 599.956 -352.718 597.533C-299.575 595.109 -323.194 727.191 -193.291 726.585C-120.663 726.246 -87.5969 504.833 47.6205 486.656C182.838 468.48 167.486 513.921 167.486 550.274C167.486 586.627 98.9914 649.638 114.344 712.65C133.971 793.214 323.37 844.732 280.266 703.562C237.161 562.391 307.427 549.062 340.493 538.762C373.56 528.462 478.073 407.286 620.966 482.415C763.86 557.544 890.811 513.921 916.201 468.48C941.591 423.039 1003 264.904 1003 264.904L969.343 -134.977L-645 -158L-611.934 676.903L-577.096 658.726Z" fill="url(#paint0_radial_498_1056)"/>
<path d="M323.012 404.298L333.908 404.4C334.038 404.402 334.166 404.437 334.279 404.502C334.392 404.566 334.486 404.658 334.554 404.768L340.091 414.044C340.176 414.184 340.305 414.293 340.459 414.354C340.612 414.416 340.782 414.426 340.942 414.384C341.102 414.341 341.243 414.249 341.345 414.12C341.447 413.991 341.503 413.832 341.506 413.669L341.61 402.9C341.612 402.771 341.648 402.645 341.713 402.533C341.778 402.421 341.871 402.328 341.982 402.261L351.367 396.788C351.509 396.704 351.619 396.577 351.681 396.425C351.744 396.273 351.754 396.106 351.711 395.948C351.668 395.79 351.574 395.65 351.444 395.549C351.314 395.448 351.153 395.392 350.988 395.39L340.092 395.288C339.961 395.285 339.834 395.25 339.721 395.186C339.608 395.121 339.513 395.029 339.446 394.919L333.908 385.644C333.823 385.503 333.694 385.394 333.541 385.333C333.387 385.272 333.218 385.261 333.058 385.304C332.898 385.346 332.756 385.439 332.655 385.568C332.553 385.697 332.496 385.855 332.493 386.018L332.39 396.788C332.388 396.917 332.352 397.043 332.287 397.154C332.222 397.266 332.129 397.359 332.017 397.426L322.633 402.899C322.491 402.983 322.38 403.111 322.318 403.262C322.256 403.414 322.246 403.582 322.289 403.74C322.331 403.898 322.425 404.038 322.556 404.138C322.686 404.239 322.846 404.295 323.012 404.298Z" fill="white" stroke="white" stroke-width="0.125" stroke-linecap="round" stroke-linejoin="round"/>
<path d="M217.012 817.163L227.908 817.265C228.038 817.268 228.166 817.303 228.279 817.367C228.392 817.432 228.486 817.523 228.554 817.634L234.091 826.909C234.176 827.049 234.305 827.158 234.459 827.22C234.612 827.281 234.782 827.291 234.942 827.249C235.102 827.207 235.243 827.114 235.345 826.985C235.447 826.856 235.503 826.698 235.506 826.534L235.61 815.765C235.612 815.636 235.648 815.51 235.713 815.398C235.778 815.287 235.871 815.193 235.982 815.127L245.367 809.654C245.509 809.57 245.619 809.442 245.681 809.29C245.744 809.139 245.754 808.971 245.711 808.813C245.668 808.655 245.574 808.515 245.444 808.414C245.314 808.314 245.153 808.258 244.988 808.255L234.092 808.153C233.961 808.151 233.834 808.115 233.721 808.051C233.608 807.987 233.513 807.895 233.446 807.784L227.908 798.509C227.823 798.369 227.694 798.26 227.541 798.198C227.387 798.137 227.218 798.127 227.058 798.169C226.898 798.211 226.756 798.304 226.655 798.433C226.553 798.562 226.496 798.72 226.493 798.884L226.39 809.653C226.388 809.782 226.352 809.908 226.287 810.02C226.222 810.131 226.129 810.225 226.017 810.291L216.633 815.764C216.491 815.849 216.38 815.976 216.318 816.128C216.256 816.279 216.246 816.447 216.289 816.605C216.331 816.763 216.425 816.903 216.556 817.004C216.686 817.104 216.846 817.16 217.012 817.163Z" fill="white" stroke="white" stroke-width="0.125" stroke-linecap="round" stroke-linejoin="round"/>
<path d="M92.0118 146.163L102.908 146.265C103.038 146.268 103.166 146.303 103.279 146.367C103.392 146.432 103.486 146.523 103.554 146.634L109.091 155.909C109.176 156.049 109.305 156.158 109.459 156.22C109.612 156.281 109.782 156.291 109.942 156.249C110.102 156.207 110.243 156.114 110.345 155.985C110.447 155.856 110.503 155.698 110.506 155.534L110.61 144.765C110.612 144.636 110.648 144.51 110.713 144.398C110.778 144.287 110.871 144.193 110.982 144.127L120.367 138.654C120.509 138.569 120.619 138.442 120.681 138.29C120.744 138.139 120.754 137.971 120.711 137.813C120.668 137.655 120.574 137.515 120.444 137.414C120.314 137.314 120.153 137.258 119.988 137.255L109.092 137.153C108.961 137.151 108.834 137.115 108.721 137.051C108.608 136.987 108.513 136.895 108.446 136.784L102.908 127.509C102.823 127.369 102.694 127.26 102.541 127.198C102.387 127.137 102.218 127.127 102.058 127.169C101.898 127.211 101.756 127.304 101.655 127.433C101.553 127.562 101.496 127.72 101.493 127.884L101.39 138.653C101.388 138.782 101.352 138.908 101.287 139.02C101.222 139.131 101.129 139.225 101.017 139.291L91.6327 144.764C91.4907 144.849 91.3803 144.976 91.3182 145.128C91.2561 145.279 91.2457 145.447 91.2886 145.605C91.3314 145.763 91.4252 145.903 91.5557 146.004C91.6862 146.104 91.8463 146.16 92.0118 146.163Z" fill="white" stroke="white" stroke-width="0.125" stroke-linecap="round" stroke-linejoin="round"/>
<path d="M-17.9882 414.181L-7.09214 414.283C-6.96175 414.286 -6.83411 414.321 -6.72116 414.385C-6.60821 414.45 -6.51364 414.541 -6.44628 414.652L-0.908759 423.927C-0.823644 424.067 -0.694596 424.177 -0.541145 424.238C-0.387694 424.299 -0.218191 424.31 -0.0582964 424.267C0.1016 424.225 0.243187 424.132 0.345035 424.003C0.446884 423.874 0.503449 423.716 0.506172 423.552L0.609506 412.783C0.612 412.654 0.647512 412.528 0.712724 412.417C0.777934 412.305 0.870712 412.211 0.982393 412.145L10.367 406.672C10.509 406.588 10.6194 406.46 10.6814 406.308C10.7435 406.157 10.7539 405.989 10.7111 405.831C10.6683 405.673 10.5745 405.533 10.444 405.433C10.3135 405.332 10.1534 405.276 9.98787 405.273L-0.908199 405.171C-1.0386 405.169 -1.16623 405.134 -1.27918 405.069C-1.39213 405.005 -1.4867 404.913 -1.55406 404.803L-7.09158 395.527C-7.1767 395.387 -7.30575 395.278 -7.4592 395.216C-7.61265 395.155 -7.78215 395.145 -7.94205 395.187C-8.10194 395.23 -8.24353 395.322 -8.34538 395.451C-8.44723 395.58 -8.50379 395.738 -8.50651 395.902L-8.60985 406.671C-8.61234 406.8 -8.64786 406.926 -8.71307 407.038C-8.77828 407.15 -8.87106 407.243 -8.98274 407.31L-18.3673 412.783C-18.5093 412.867 -18.6197 412.994 -18.6818 413.146C-18.7439 413.298 -18.7543 413.465 -18.7114 413.623C-18.6686 413.781 -18.5748 413.921 -18.4443 414.022C-18.3138 414.123 -18.1537 414.178 -17.9882 414.181Z" fill="white" stroke="white" stroke-width="0.125" stroke-linecap="round" stroke-linejoin="round"/>
<path d="M295.284 559.294C297.242 559.294 298.828 557.726 298.828 555.792C298.828 553.857 297.242 552.289 295.284 552.289C293.327 552.289 291.741 553.857 291.741 555.792C291.741 557.726 293.327 559.294 295.284 559.294Z" fill="#F0FFFC"/>
<path d="M227.544 685.005C229.501 685.005 231.088 683.437 231.088 681.503C231.088 679.568 229.501 678 227.544 678C225.587 678 224 679.568 224 681.503C224 683.437 225.587 685.005 227.544 685.005Z" fill="#F0FFFC"/>
<path d="M317.544 735.005C319.501 735.005 321.088 733.437 321.088 731.503C321.088 729.568 319.501 728 317.544 728C315.587 728 314 729.568 314 731.503C314 733.437 315.587 735.005 317.544 735.005Z" fill="#F0FFFC"/>
<path d="M38.5438 480.005C40.5009 480.005 42.0875 478.437 42.0875 476.503C42.0875 474.568 40.5009 473 38.5438 473C36.5866 473 35 474.568 35 476.503C35 478.437 36.5866 480.005 38.5438 480.005Z" fill="#F0FFFC"/>
<path d="M215.544 147.005C217.501 147.005 219.088 145.437 219.088 143.503C219.088 141.568 217.501 140 215.544 140C213.587 140 212 141.568 212 143.503C212 145.437 213.587 147.005 215.544 147.005Z" fill="#F0FFFC"/>
<path d="M299.544 179.005C301.501 179.005 303.088 177.437 303.088 175.503C303.088 173.568 301.501 172 299.544 172C297.587 172 296 173.568 296 175.503C296 177.437 297.587 179.005 299.544 179.005Z" fill="#F0FFFC"/>
<path d="M72.5438 396.005C74.5009 396.005 76.0875 394.437 76.0875 392.503C76.0875 390.568 74.5009 389 72.5438 389C70.5866 389 69 390.568 69 392.503C69 394.437 70.5866 396.005 72.5438 396.005Z" fill="#F0FFFC"/>
<path d="M172.544 112.005C174.501 112.005 176.088 110.437 176.088 108.503C176.088 106.568 174.501 105 172.544 105C170.587 105 169 106.568 169 108.503C169 110.437 170.587 112.005 172.544 112.005Z" fill="#F0FFFC"/>
<path d="M331.903 333.966C335.491 333.966 338.4 331.091 338.4 327.545C338.4 323.999 335.491 321.124 331.903 321.124C328.315 321.124 325.406 323.999 325.406 327.545C325.406 331.091 328.315 333.966 331.903 333.966Z" fill="#F0FFFC"/>
<path d="M268.116 462.391C271.704 462.391 274.612 459.517 274.612 455.97C274.612 452.424 271.704 449.549 268.116 449.549C264.527 449.549 261.619 452.424 261.619 455.97C261.619 459.517 264.527 462.391 268.116 462.391Z" fill="#F0FFFC"/>
<path d="M54.9002 312.367C56.8574 312.367 58.4439 310.799 58.4439 308.865C58.4439 306.931 56.8574 305.362 54.9002 305.362C52.943 305.362 51.3564 306.931 51.3564 308.865C51.3564 310.799 52.943 312.367 54.9002 312.367Z" fill="#F0FFFC"/>
<defs>
<radialGradient id="paint0_radial_498_1056" cx="0" cy="0" r="1" gradientUnits="userSpaceOnUse" gradientTransform="translate(179 317) scale(668.307 685.749)">
<stop stop-color="#4564A4"/>
<stop offset="0.0481" stop-color="#4564A4"/>
<stop offset="0.245" stop-color="#010817"/>
<stop offset="0.6521"/>
<stop offset="1"/>
</radialGradient>
</defs>
</svg>
