<svg width="24" height="24" viewBox="0 0 24 24" fill="none" xmlns="http://www.w3.org/2000/svg">
<path d="M12 2.00001C17.523 2.00001 22 6.47701 22 12C22.0036 14.3074 21.2058 16.5445 19.743 18.329L20.707 19.293C20.8863 19.473 20.9905 19.7144 20.9982 19.9684C21.006 20.2223 20.9168 20.4697 20.7488 20.6603C20.5807 20.8509 20.3464 20.9703 20.0935 20.9944C19.8406 21.0185 19.588 20.9454 19.387 20.79L19.293 20.707L18.328 19.744C16.5436 21.2062 14.307 22.0036 12 22C6.477 22 2 17.523 2 12C2 9.60001 2.846 7.39601 4.256 5.67201L3.293 4.70701C3.11365 4.52705 3.00953 4.28558 3.00177 4.03163C2.99402 3.77768 3.08322 3.5303 3.25125 3.33973C3.41928 3.14917 3.65355 3.02971 3.90647 3.00561C4.1594 2.98152 4.41201 3.0546 4.613 3.21001L4.707 3.29301L5.672 4.25601C7.45637 2.79378 9.69304 1.99639 12 2.00001ZM5.68 7.09501C4.48593 8.63424 3.89454 10.5563 4.01677 12.5005C4.139 14.4448 4.96646 16.2776 6.3439 17.6552C7.72134 19.0327 9.55411 19.8604 11.4983 19.9828C13.4426 20.1052 15.3647 19.5139 16.904 18.32L5.68 7.09501ZM12 4.00001C10.151 4.00001 8.45 4.62701 7.094 5.68001L9.424 8.01001C9.80601 8.04938 10.1686 8.1979 10.4685 8.43783C10.7683 8.67775 10.9928 8.99894 11.115 9.36301L11.159 9.51501L11.236 9.82201L13 11.586V9.00001C13 8.75508 13.09 8.51867 13.2527 8.33564C13.4155 8.15261 13.6397 8.03567 13.883 8.00701L14 8.00001H16C16.7652 7.99997 17.5015 8.29234 18.0583 8.8173C18.615 9.34225 18.9501 10.0601 18.995 10.824L19 11V13C19.0003 13.5556 18.8462 14.1004 18.5551 14.5736C18.2639 15.0468 17.8471 15.4298 17.351 15.68L17.175 15.761L18.32 16.906C19.2381 15.7235 19.8059 14.307 19.959 12.8178C20.112 11.3285 19.8441 9.8262 19.1857 8.48166C18.5273 7.13712 17.5048 6.0043 16.2345 5.21204C14.9642 4.41977 13.4971 3.99985 12 4.00001ZM6.526 10.774L9.752 14H7.78L7.47 15.242C7.40568 15.4994 7.24176 15.7207 7.01427 15.8572C6.78679 15.9938 6.51439 16.0343 6.257 15.97C5.99961 15.9057 5.77831 15.7418 5.64178 15.5143C5.50525 15.2868 5.46468 15.0144 5.529 14.757L6.526 10.774ZM10.376 14.624L11.726 15.974C11.4705 16.0332 11.2019 15.9897 10.9782 15.8528C10.7545 15.7158 10.5935 15.4965 10.53 15.242L10.376 14.624ZM16 10H15V13.586L15.414 14H16C16.2652 14 16.5196 13.8947 16.7071 13.7071C16.8946 13.5196 17 13.2652 17 13V11C17 10.7348 16.8946 10.4804 16.7071 10.2929C16.5196 10.1054 16.2652 10 16 10Z" fill="white"/>
</svg>
