<svg width="39" height="38" viewBox="0 0 39 38" fill="none" xmlns="http://www.w3.org/2000/svg">
<rect opacity="0.15" x="1.66406" y="0.75" width="36.3647" height="36.3646" rx="18.1823" stroke="white" stroke-width="1.5"/>
<path fill-rule="evenodd" clip-rule="evenodd" d="M19.6641 16.4336L19.6915 16.8955L19.2355 16.839C17.5757 16.6221 16.1257 15.8868 14.8945 14.6519L14.2926 14.0391L14.1376 14.4916C13.8092 15.5003 14.019 16.5656 14.703 17.2821C15.0678 17.678 14.9857 17.7346 14.3564 17.4989C14.1376 17.4235 13.946 17.3669 13.9278 17.3952C13.864 17.4612 14.0828 18.3191 14.2561 18.6584C14.4932 19.1298 14.9766 19.5917 15.5055 19.8651L15.9524 20.0819L15.4234 20.0914C14.9127 20.0914 14.8945 20.1008 14.9492 20.2988C15.1316 20.9115 15.8521 21.562 16.6546 21.8448L17.22 22.0428L16.7276 22.3445C15.998 22.7781 15.1407 23.0232 14.2835 23.0421C13.8731 23.0515 13.5356 23.0892 13.5356 23.1175C13.5356 23.2118 14.6483 23.7397 15.2958 23.9471C17.2383 24.5599 19.5456 24.2959 21.2783 23.2495C22.5095 22.5047 23.7407 21.0247 24.3152 19.5917C24.6253 18.8281 24.9354 17.4329 24.9354 16.7636C24.9354 16.3299 24.9627 16.2733 25.4734 15.7548C25.7744 15.4532 26.0571 15.1232 26.1118 15.0289C26.203 14.8498 26.1939 14.8498 25.7288 15.0101C24.9536 15.2929 24.8442 15.2552 25.2272 14.831C25.5099 14.5293 25.8474 13.9825 25.8474 13.8223C25.8474 13.794 25.7106 13.8411 25.5555 13.926C25.3914 14.0202 25.0266 14.1616 24.753 14.2465L24.2605 14.4067L23.8136 14.0956C23.5674 13.926 23.2209 13.7374 23.0385 13.6809C22.5734 13.5489 21.862 13.5677 21.4425 13.7186C20.3025 14.1428 19.5821 15.2363 19.6641 16.4336Z" fill="white"/>
</svg>
