<svg width="72" height="72" viewBox="0 0 72 72" fill="none" xmlns="http://www.w3.org/2000/svg">
<path d="M30 3.4641C33.7128 1.32051 38.2872 1.32051 42 3.4641L61.1769 14.5359C64.8897 16.6795 67.1769 20.641 67.1769 24.9282V47.0718C67.1769 51.359 64.8897 55.3205 61.1769 57.4641L42 68.5359C38.2872 70.6795 33.7128 70.6795 30 68.5359L10.8231 57.4641C7.11027 55.3205 4.82309 51.359 4.82309 47.0718V24.9282C4.82309 20.641 7.11027 16.6795 10.8231 14.5359L30 3.4641Z" fill="#EC796B"/>
<path fill-rule="evenodd" clip-rule="evenodd" d="M36 23.6667C36.9205 23.6667 37.6666 24.4129 37.6666 25.3334V34.3334H46.6666C47.5872 34.3334 48.3333 35.0795 48.3333 36C48.3333 36.9206 47.5872 37.6667 46.6666 37.6667H37.6666V46.6667C37.6666 47.5872 36.9205 48.3334 36 48.3334C35.0794 48.3334 34.3333 47.5872 34.3333 46.6667V37.6667H25.3333C24.4128 37.6667 23.6666 36.9206 23.6666 36C23.6666 35.0795 24.4128 34.3334 25.3333 34.3334H34.3333V25.3334C34.3333 24.4129 35.0794 23.6667 36 23.6667Z" fill="white"/>
</svg>
