<svg width="1512" height="982" viewBox="0 0 1512 982" fill="none" xmlns="http://www.w3.org/2000/svg">
<path d="M-13 135.376C-13 135.376 71.8877 131.377 95.0605 202.713C118.233 274.048 159.396 179.145 203.121 169.044C246.846 158.944 257.151 229.086 257.151 229.086C257.151 229.086 308.62 16.4834 468.209 43.769C627.798 71.0546 602.004 277.064 602.004 277.064C602.004 277.064 686.951 231.612 751.287 325.533C815.623 419.454 735.858 446.74 787.327 458.874C838.796 471.009 820.806 304.35 980.335 331.635C1139.86 358.921 1078.8 528.596 1078.8 528.596C1078.8 528.596 1199.08 504.327 1217.07 571.033C1235.06 637.669 1289.15 513.446 1361.17 525.58C1433.25 537.715 1412.64 625.604 1440.93 628.62C1469.23 631.636 1512 598.389 1512 598.389V925.254L-13 940.616V135.376Z" fill="#8DAEF1"/>
<path d="M-13 244.025C-13 244.025 73.6748 240.027 96.8477 311.362C120.021 382.697 161.184 287.794 204.908 277.694C248.633 267.593 258.938 337.736 258.938 337.736C258.938 337.736 310.407 125.133 469.937 152.418C629.466 179.704 603.731 385.714 603.731 385.714C603.731 385.714 688.679 340.261 753.015 434.182C817.351 528.104 737.586 555.389 789.055 567.524C840.523 579.659 822.533 412.999 982.062 440.285C1141.59 467.57 1080.59 637.246 1080.59 637.246C1080.59 637.246 1200.86 612.976 1218.85 679.682C1236.84 746.318 1290.93 622.095 1362.96 634.23C1435.04 646.364 1414.42 734.253 1442.72 737.27C1471.02 740.286 1512 706.757 1512 706.757V981.717H-13V244.025Z" fill="black"/>
<path d="M628.012 319.506L638.908 319.61C639.038 319.612 639.166 319.648 639.279 319.713C639.392 319.778 639.487 319.871 639.554 319.982L645.091 329.367C645.177 329.509 645.306 329.619 645.459 329.681C645.613 329.744 645.782 329.754 645.942 329.711C646.102 329.668 646.243 329.575 646.345 329.444C646.447 329.314 646.504 329.153 646.506 328.988L646.61 318.092C646.612 317.961 646.648 317.834 646.713 317.721C646.778 317.608 646.871 317.513 646.983 317.446L656.367 311.908C656.509 311.823 656.62 311.694 656.682 311.541C656.744 311.387 656.754 311.218 656.711 311.058C656.669 310.898 656.575 310.757 656.444 310.655C656.314 310.553 656.154 310.496 655.988 310.494L645.092 310.39C644.962 310.388 644.834 310.352 644.721 310.287C644.608 310.222 644.514 310.129 644.446 310.017L638.909 300.633C638.824 300.491 638.694 300.38 638.541 300.318C638.388 300.256 638.218 300.246 638.058 300.289C637.898 300.331 637.757 300.425 637.655 300.556C637.553 300.686 637.496 300.846 637.494 301.012L637.39 311.908C637.388 312.038 637.352 312.166 637.287 312.279C637.222 312.392 637.129 312.486 637.018 312.554L627.633 318.091C627.491 318.176 627.381 318.305 627.318 318.459C627.256 318.612 627.246 318.782 627.289 318.942C627.332 319.102 627.425 319.243 627.556 319.345C627.686 319.447 627.847 319.503 628.012 319.506Z" fill="white" stroke="white" stroke-width="0.125" stroke-linecap="round" stroke-linejoin="round"/>
<path d="M33.4167 356.309L48.6711 356.454C48.8537 356.457 49.0324 356.507 49.1905 356.598C49.3486 356.689 49.481 356.819 49.5754 356.976L57.3279 370.114C57.447 370.313 57.6277 370.467 57.8425 370.554C58.0574 370.641 58.2947 370.656 58.5185 370.596C58.7424 370.536 58.9406 370.405 59.0832 370.222C59.2258 370.039 59.305 369.815 59.3088 369.583L59.4535 354.329C59.4569 354.146 59.5067 353.968 59.598 353.809C59.6893 353.651 59.8191 353.519 59.9755 353.425L73.1139 345.672C73.3127 345.553 73.4672 345.372 73.5542 345.157C73.6411 344.943 73.6557 344.705 73.5957 344.481C73.5357 344.258 73.4044 344.059 73.2217 343.917C73.039 343.774 72.8149 343.695 72.5832 343.691L57.3287 343.546C57.1461 343.543 56.9674 343.493 56.8093 343.402C56.6512 343.311 56.5188 343.181 56.4245 343.024L48.6719 329.886C48.5528 329.687 48.3721 329.533 48.1573 329.446C47.9424 329.359 47.7051 329.344 47.4813 329.404C47.2574 329.464 47.0592 329.595 46.9166 329.778C46.774 329.961 46.6948 330.185 46.691 330.417L46.5464 345.671C46.5429 345.854 46.4931 346.032 46.4019 346.191C46.3106 346.349 46.1807 346.481 46.0243 346.575L32.8859 354.328C32.6871 354.447 32.5326 354.628 32.4456 354.843C32.3587 355.057 32.3441 355.295 32.4041 355.519C32.4641 355.742 32.5954 355.941 32.7781 356.083C32.9608 356.226 33.1849 356.305 33.4167 356.309Z" fill="white" stroke="white" stroke-width="0.125" stroke-linecap="round" stroke-linejoin="round"/>
<path d="M534.417 447.309L549.671 447.454C549.854 447.457 550.032 447.507 550.191 447.598C550.349 447.689 550.481 447.819 550.575 447.976L558.328 461.114C558.447 461.313 558.628 461.467 558.843 461.554C559.057 461.641 559.295 461.656 559.519 461.596C559.742 461.536 559.941 461.405 560.083 461.222C560.226 461.039 560.305 460.815 560.309 460.583L560.453 445.329C560.457 445.146 560.507 444.968 560.598 444.809C560.689 444.651 560.819 444.519 560.975 444.425L574.114 436.672C574.313 436.553 574.467 436.372 574.554 436.157C574.641 435.943 574.656 435.705 574.596 435.481C574.536 435.258 574.404 435.059 574.222 434.917C574.039 434.774 573.815 434.695 573.583 434.691L558.329 434.546C558.146 434.543 557.967 434.493 557.809 434.402C557.651 434.311 557.519 434.181 557.424 434.024L549.672 420.886C549.553 420.687 549.372 420.533 549.157 420.446C548.942 420.359 548.705 420.344 548.481 420.404C548.257 420.464 548.059 420.595 547.917 420.778C547.774 420.961 547.695 421.185 547.691 421.417L547.546 436.671C547.543 436.854 547.493 437.032 547.402 437.191C547.311 437.349 547.181 437.481 547.024 437.575L533.886 445.328C533.687 445.447 533.533 445.628 533.446 445.843C533.359 446.057 533.344 446.295 533.404 446.519C533.464 446.742 533.595 446.941 533.778 447.083C533.961 447.226 534.185 447.305 534.417 447.309Z" fill="white" stroke="white" stroke-width="0.125" stroke-linecap="round" stroke-linejoin="round"/>
<path d="M535.285 320.833C537.917 320.833 540.051 318.321 540.051 315.222C540.051 312.123 537.917 309.61 535.285 309.61C532.653 309.61 530.52 312.123 530.52 315.222C530.52 318.321 532.653 320.833 535.285 320.833Z" fill="#DCF4F3"/>
<path d="M328.338 293.688C330.97 293.688 333.104 291.176 333.104 288.077C333.104 284.978 330.97 282.465 328.338 282.465C325.706 282.465 323.572 284.978 323.572 288.077C323.572 291.176 325.706 293.688 328.338 293.688Z" fill="#DCF4F3"/>
<path d="M458.082 256.162C460.714 256.162 462.848 253.649 462.848 250.55C462.848 247.451 460.714 244.939 458.082 244.939C455.45 244.939 453.316 247.451 453.316 250.55C453.316 253.649 455.45 256.162 458.082 256.162Z" fill="#DCF4F3"/>
<path d="M824.678 468.414C827.31 468.414 829.443 465.901 829.443 462.802C829.443 459.703 827.31 457.191 824.678 457.191C822.046 457.191 819.912 459.703 819.912 462.802C819.912 465.901 822.046 468.414 824.678 468.414Z" fill="#DCF4F3"/>
<path d="M61.1055 446.88C63.7375 446.88 65.8711 444.368 65.8711 441.269C65.8711 438.17 63.7375 435.657 61.1055 435.657C58.4735 435.657 56.3398 438.17 56.3398 441.269C56.3398 444.368 58.4735 446.88 61.1055 446.88Z" fill="#DCF4F3"/>
<path d="M119.782 267.805C122.414 267.805 124.548 265.293 124.548 262.194C124.548 259.095 122.414 256.583 119.782 256.583C117.15 256.583 115.017 259.095 115.017 262.194C115.017 265.293 117.15 267.805 119.782 267.805Z" fill="#DCF4F3"/>
<path d="M162.256 479.567C164.888 479.567 167.021 477.054 167.021 473.955C167.021 470.856 164.888 468.344 162.256 468.344C159.624 468.344 157.49 470.856 157.49 473.955C157.49 477.054 159.624 479.567 162.256 479.567Z" fill="#DCF4F3"/>
<path d="M267.012 384.506L277.908 384.61C278.038 384.612 278.166 384.648 278.279 384.713C278.392 384.778 278.487 384.871 278.554 384.982L284.091 394.367C284.177 394.509 284.306 394.619 284.459 394.681C284.613 394.744 284.782 394.754 284.942 394.711C285.102 394.668 285.243 394.575 285.345 394.444C285.447 394.314 285.504 394.153 285.506 393.988L285.61 383.092C285.612 382.961 285.648 382.834 285.713 382.721C285.778 382.608 285.871 382.513 285.983 382.446L295.367 376.908C295.509 376.823 295.62 376.694 295.682 376.541C295.744 376.387 295.754 376.218 295.711 376.058C295.669 375.898 295.575 375.757 295.444 375.655C295.314 375.553 295.154 375.496 294.988 375.494L284.092 375.39C283.962 375.388 283.834 375.352 283.721 375.287C283.608 375.222 283.514 375.129 283.446 375.017L277.909 365.633C277.824 365.491 277.694 365.38 277.541 365.318C277.388 365.256 277.218 365.246 277.058 365.289C276.898 365.331 276.757 365.425 276.655 365.556C276.553 365.686 276.496 365.846 276.494 366.012L276.39 376.908C276.388 377.038 276.352 377.166 276.287 377.279C276.222 377.392 276.129 377.486 276.018 377.554L266.633 383.091C266.491 383.176 266.381 383.305 266.318 383.459C266.256 383.612 266.246 383.782 266.289 383.942C266.332 384.102 266.425 384.243 266.556 384.345C266.686 384.447 266.847 384.503 267.012 384.506Z" fill="white" stroke="white" stroke-width="0.125" stroke-linecap="round" stroke-linejoin="round"/>
<path d="M88.0908 526.352C89.9332 526.352 91.4268 524.593 91.4268 522.424C91.4268 520.255 89.9332 518.496 88.0908 518.496C86.2484 518.496 84.7549 520.255 84.7549 522.424C84.7549 524.593 86.2484 526.352 88.0908 526.352Z" fill="#DCF4F3"/>
<path d="M420.017 374.843C422.649 374.843 424.782 372.331 424.782 369.232C424.782 366.133 422.649 363.621 420.017 363.621C417.385 363.621 415.251 366.133 415.251 369.232C415.251 372.331 417.385 374.843 420.017 374.843Z" fill="#DCF4F3"/>
</svg>
