<svg width="25" height="24" viewBox="0 0 25 24" fill="none" xmlns="http://www.w3.org/2000/svg">
<path d="M12.4906 1.78809C6.69453 1.78574 2 6.47793 2 12.2693C2 16.849 4.93672 20.742 9.02656 22.1717C9.57734 22.31 9.49297 21.9186 9.49297 21.6514V19.835C6.3125 20.2076 6.18359 18.1029 5.97031 17.7514C5.53906 17.0154 4.51953 16.8279 4.82422 16.4764C5.54844 16.1037 6.28672 16.5701 7.14219 17.8334C7.76094 18.7498 8.96797 18.5951 9.57969 18.4428C9.71328 17.892 9.99922 17.3998 10.393 17.0178C7.09766 16.4271 5.72422 14.4162 5.72422 12.0256C5.72422 10.8654 6.10625 9.79902 6.85625 8.93887C6.37813 7.5209 6.90078 6.30684 6.97109 6.12637C8.33281 6.00449 9.74844 7.10137 9.85859 7.18809C10.632 6.97949 11.5156 6.86934 12.5047 6.86934C13.4984 6.86934 14.3844 6.98418 15.1648 7.19512C15.4297 6.99356 16.7422 6.05137 18.0078 6.16621C18.0758 6.34668 18.5867 7.53262 18.1367 8.93184C18.8961 9.79434 19.2828 10.8701 19.2828 12.0326C19.2828 14.4279 17.9 16.4412 14.5953 17.0225C14.8784 17.3008 15.1031 17.6328 15.2564 17.999C15.4098 18.3652 15.4886 18.7583 15.4883 19.1553V21.792C15.507 22.0029 15.4883 22.2115 15.8398 22.2115C19.9906 20.8123 22.9789 16.8912 22.9789 12.2717C22.9789 6.47793 18.282 1.78809 12.4906 1.78809Z" fill="black"/>
</svg>
