<svg width="1512" height="900" viewBox="0 0 1512 900" fill="none" xmlns="http://www.w3.org/2000/svg">
<path d="M1512 0H0V826.875H1512V0Z" fill="black" stroke="black" stroke-width="0.979847" stroke-miterlimit="10"/>
<path d="M14.7656 67.9219C66.7406 144.112 186.047 10.6313 239.203 8.26874C291.066 5.96533 268.38 134.663 398.672 134.072C471.319 133.741 504.394 -82.0969 639.647 -99.8156C774.9 -117.534 732.67 -86.5266 732.67 -51.0891C732.67 -15.6516 686.306 -11.8125 701.662 49.6125C721.295 128.148 910.744 178.369 867.628 40.7531C824.513 -96.8625 883.575 -49.6125 929.348 -57.5859C951.904 -61.5136 988.706 18.3862 1036.84 -3.24841C1084.98 -24.883 1053.38 -173.939 1213.14 -103.95C1360.25 -39.5069 1473.31 -40.4578 1498.71 -84.7547C1524.11 -129.052 1595.28 -315.984 1595.28 -315.984L1561.61 -705.797L-53.1562 -728.241L-20.0812 85.6406L14.7656 67.9219Z" fill="black"/>
<path d="M-46.0781 867.162C5.89687 943.353 125.203 809.872 178.359 807.509C231.516 805.147 207.891 933.903 337.828 933.312C410.475 932.982 443.55 717.144 578.803 699.425C714.056 681.706 698.7 726.003 698.7 761.441C698.7 796.878 630.188 858.303 645.544 919.728C665.176 998.263 854.625 1048.48 811.509 910.869C768.394 773.253 838.678 760.259 871.753 750.219C904.828 740.178 1009.37 622.053 1152.3 695.291C1295.23 768.528 1422.22 726.003 1447.61 681.706C1473.01 637.409 1534.43 483.256 1534.43 483.256L1500.77 93.4438L-114 71L-80.925 884.881L-46.0781 867.162Z" fill="url(#paint0_radial_196_519)"/>
<path d="M1153.64 619.566C1153.64 626.139 1149.99 631.921 1147.95 637.42C1145.62 643.681 1143.92 650.136 1139.66 654.034C1134.85 658.429 1128.43 659.427 1122.19 659.427C1115.94 659.427 1109.78 658.151 1104.97 653.751C1100.71 649.853 1099.05 643.569 1096.72 637.308C1094.68 631.809 1091.79 626.139 1091.79 619.566C1091.79 612.992 1094.43 607.233 1096.48 601.735C1098.81 595.474 1100.35 588.883 1104.61 584.985C1109.42 580.59 1115.94 578.216 1122.19 578.216C1128.43 578.216 1133.38 582.315 1138.19 586.715C1142.45 590.613 1146.51 595.131 1148.84 601.392C1150.88 606.879 1153.64 612.992 1153.64 619.566Z" fill="black"/>
<path d="M96.9749 771.947C96.9749 774.244 96.0062 776.158 93.2716 777.954C91.3698 779.2 88.8715 779.844 86.0129 780.694C83.6799 781.391 81.341 783.122 78.5415 783.482C76.0431 783.801 73.3262 783.175 70.5798 783.175C67.8334 783.175 65.0457 784.38 62.5473 784.055C59.7478 783.694 57.338 781.875 55.005 781.178C52.1464 780.322 49.8843 779.046 47.9884 777.8C45.2538 776.004 44.2793 774.244 44.2793 771.941C44.2793 769.643 45.6968 768.563 48.4314 766.761C50.3332 765.515 52.3118 764.121 55.1704 763.271C57.5034 762.574 60.049 762.532 62.8426 762.172C65.341 761.853 67.8275 760.666 70.5739 760.666C73.3203 760.666 75.984 760.483 78.4824 760.802C81.282 761.162 84.1229 760.973 86.4617 761.67C89.3204 762.526 91.0332 765.202 92.9291 766.448C95.6696 768.255 96.9749 769.649 96.9749 771.947Z" fill="black"/>
<path d="M854.012 578.506L864.908 578.61C865.038 578.612 865.166 578.648 865.279 578.713C865.392 578.778 865.486 578.871 865.554 578.983L871.091 588.367C871.176 588.509 871.305 588.62 871.459 588.682C871.612 588.744 871.782 588.754 871.942 588.711C872.102 588.668 872.243 588.575 872.345 588.444C872.447 588.314 872.503 588.154 872.506 587.988L872.61 577.092C872.612 576.962 872.648 576.834 872.713 576.721C872.778 576.608 872.871 576.513 872.982 576.446L882.367 570.909C882.509 570.823 882.619 570.694 882.681 570.541C882.744 570.388 882.754 570.218 882.711 570.058C882.668 569.898 882.574 569.757 882.444 569.655C882.314 569.553 882.153 569.496 881.988 569.494L871.092 569.39C870.961 569.388 870.834 569.352 870.721 569.287C870.608 569.222 870.513 569.129 870.446 569.017L864.908 559.633C864.823 559.491 864.694 559.38 864.541 559.318C864.387 559.256 864.218 559.246 864.058 559.289C863.898 559.332 863.756 559.425 863.655 559.556C863.553 559.686 863.496 559.846 863.493 560.012L863.39 570.908C863.388 571.038 863.352 571.166 863.287 571.279C863.222 571.392 863.129 571.487 863.017 571.554L853.633 577.091C853.491 577.177 853.38 577.306 853.318 577.459C853.256 577.612 853.246 577.782 853.289 577.942C853.331 578.102 853.425 578.243 853.556 578.345C853.686 578.447 853.846 578.504 854.012 578.506Z" fill="white" stroke="white" stroke-width="0.125" stroke-linecap="round" stroke-linejoin="round"/>
<path d="M53.9123 737.289C67.4297 737.289 78.3878 726.331 78.3878 712.814C78.3878 699.296 67.4297 688.338 53.9123 688.338C40.3948 688.338 29.4368 699.296 29.4368 712.814C29.4368 726.331 40.3948 737.289 53.9123 737.289Z" fill="#F5F7F7"/>
<path d="M723.012 703.506L733.908 703.61C734.038 703.612 734.166 703.648 734.279 703.713C734.392 703.778 734.486 703.871 734.554 703.983L740.091 713.367C740.176 713.509 740.305 713.62 740.459 713.682C740.612 713.744 740.782 713.754 740.942 713.711C741.102 713.668 741.243 713.575 741.345 713.444C741.447 713.314 741.503 713.154 741.506 712.988L741.61 702.092C741.612 701.962 741.648 701.834 741.713 701.721C741.778 701.608 741.871 701.513 741.982 701.446L751.367 695.909C751.509 695.823 751.619 695.694 751.681 695.541C751.744 695.388 751.754 695.218 751.711 695.058C751.668 694.898 751.574 694.757 751.444 694.655C751.314 694.553 751.153 694.496 750.988 694.494L740.092 694.39C739.961 694.388 739.834 694.352 739.721 694.287C739.608 694.222 739.513 694.129 739.446 694.017L733.908 684.633C733.823 684.491 733.694 684.38 733.541 684.318C733.387 684.256 733.218 684.246 733.058 684.289C732.898 684.332 732.756 684.425 732.655 684.556C732.553 684.686 732.496 684.846 732.493 685.012L732.39 695.908C732.388 696.038 732.352 696.166 732.287 696.279C732.222 696.392 732.129 696.487 732.017 696.554L722.633 702.091C722.491 702.177 722.38 702.306 722.318 702.459C722.256 702.612 722.246 702.782 722.289 702.942C722.331 703.102 722.425 703.243 722.556 703.345C722.686 703.447 722.846 703.504 723.012 703.506Z" fill="white" stroke="white" stroke-width="0.125" stroke-linecap="round" stroke-linejoin="round"/>
<path d="M513.012 588.506L523.908 588.61C524.038 588.612 524.166 588.648 524.279 588.713C524.392 588.778 524.487 588.871 524.554 588.983L530.091 598.367C530.177 598.509 530.306 598.62 530.459 598.682C530.613 598.744 530.782 598.754 530.942 598.711C531.102 598.668 531.243 598.575 531.345 598.444C531.447 598.314 531.504 598.154 531.506 597.988L531.61 587.092C531.612 586.962 531.648 586.834 531.713 586.721C531.778 586.608 531.871 586.513 531.983 586.446L541.367 580.909C541.509 580.823 541.62 580.694 541.682 580.541C541.744 580.388 541.754 580.218 541.711 580.058C541.669 579.898 541.575 579.757 541.444 579.655C541.314 579.553 541.154 579.496 540.988 579.494L530.092 579.39C529.962 579.388 529.834 579.352 529.721 579.287C529.608 579.222 529.514 579.129 529.446 579.017L523.909 569.633C523.824 569.491 523.694 569.38 523.541 569.318C523.388 569.256 523.218 569.246 523.058 569.289C522.898 569.332 522.757 569.425 522.655 569.556C522.553 569.686 522.496 569.846 522.494 570.012L522.39 580.908C522.388 581.038 522.352 581.166 522.287 581.279C522.222 581.392 522.129 581.487 522.018 581.554L512.633 587.091C512.491 587.177 512.381 587.306 512.318 587.459C512.256 587.612 512.246 587.782 512.289 587.942C512.332 588.102 512.425 588.243 512.556 588.345C512.686 588.447 512.847 588.504 513.012 588.506Z" fill="white" stroke="white" stroke-width="0.125" stroke-linecap="round" stroke-linejoin="round"/>
<path d="M1293.42 528.309L1308.67 528.454C1308.85 528.457 1309.03 528.507 1309.19 528.598C1309.35 528.689 1309.48 528.819 1309.58 528.976L1317.33 542.114C1317.45 542.313 1317.63 542.467 1317.84 542.554C1318.06 542.641 1318.29 542.656 1318.52 542.596C1318.74 542.536 1318.94 542.405 1319.08 542.222C1319.23 542.039 1319.31 541.815 1319.31 541.583L1319.45 526.329C1319.46 526.146 1319.51 525.968 1319.6 525.809C1319.69 525.651 1319.82 525.519 1319.98 525.425L1333.11 517.672C1333.31 517.553 1333.47 517.372 1333.55 517.157C1333.64 516.943 1333.66 516.705 1333.6 516.481C1333.54 516.258 1333.4 516.059 1333.22 515.917C1333.04 515.774 1332.82 515.695 1332.58 515.691L1317.33 515.546C1317.15 515.543 1316.97 515.493 1316.81 515.402C1316.65 515.311 1316.52 515.181 1316.42 515.024L1308.67 501.886C1308.55 501.687 1308.37 501.533 1308.16 501.446C1307.94 501.359 1307.71 501.344 1307.48 501.404C1307.26 501.464 1307.06 501.595 1306.92 501.778C1306.77 501.961 1306.7 502.185 1306.69 502.417L1306.55 517.671C1306.54 517.854 1306.49 518.032 1306.4 518.191C1306.31 518.349 1306.18 518.481 1306.02 518.575L1292.89 526.328C1292.69 526.447 1292.53 526.628 1292.45 526.843C1292.36 527.057 1292.34 527.295 1292.4 527.519C1292.46 527.742 1292.6 527.941 1292.78 528.083C1292.96 528.226 1293.19 528.305 1293.42 528.309Z" fill="white" stroke="white" stroke-width="0.125" stroke-linecap="round" stroke-linejoin="round"/>
<path d="M1404.01 265.506L1414.91 265.61C1415.04 265.612 1415.17 265.648 1415.28 265.713C1415.39 265.778 1415.49 265.871 1415.55 265.983L1421.09 275.367C1421.18 275.509 1421.31 275.62 1421.46 275.682C1421.61 275.744 1421.78 275.754 1421.94 275.711C1422.1 275.668 1422.24 275.575 1422.35 275.444C1422.45 275.314 1422.5 275.154 1422.51 274.988L1422.61 264.092C1422.61 263.962 1422.65 263.834 1422.71 263.721C1422.78 263.608 1422.87 263.513 1422.98 263.446L1432.37 257.909C1432.51 257.823 1432.62 257.694 1432.68 257.541C1432.74 257.388 1432.75 257.218 1432.71 257.058C1432.67 256.898 1432.57 256.757 1432.44 256.655C1432.31 256.553 1432.15 256.496 1431.99 256.494L1421.09 256.39C1420.96 256.388 1420.83 256.352 1420.72 256.287C1420.61 256.222 1420.51 256.129 1420.45 256.017L1414.91 246.633C1414.82 246.491 1414.69 246.38 1414.54 246.318C1414.39 246.256 1414.22 246.246 1414.06 246.289C1413.9 246.332 1413.76 246.425 1413.65 246.556C1413.55 246.686 1413.5 246.846 1413.49 247.012L1413.39 257.908C1413.39 258.038 1413.35 258.166 1413.29 258.279C1413.22 258.392 1413.13 258.487 1413.02 258.554L1403.63 264.091C1403.49 264.177 1403.38 264.306 1403.32 264.459C1403.26 264.612 1403.25 264.782 1403.29 264.942C1403.33 265.102 1403.43 265.243 1403.56 265.345C1403.69 265.447 1403.85 265.504 1404.01 265.506Z" fill="white" stroke="white" stroke-width="0.125" stroke-linecap="round" stroke-linejoin="round"/>
<path d="M350.012 51.5063L360.908 51.6097C361.038 51.6122 361.166 51.6477 361.279 51.7129C361.392 51.7781 361.487 51.8709 361.554 51.9826L367.091 61.3672C367.177 61.5092 367.306 61.6195 367.459 61.6816C367.613 61.7437 367.782 61.7541 367.942 61.7113C368.102 61.6684 368.243 61.5747 368.345 61.4442C368.447 61.3137 368.504 61.1536 368.506 60.988L368.61 50.092C368.612 49.9616 368.648 49.8339 368.713 49.721C368.778 49.608 368.871 49.5135 368.983 49.4461L378.367 43.9086C378.509 43.8235 378.62 43.6944 378.682 43.541C378.744 43.3875 378.754 43.218 378.711 43.0581C378.669 42.8982 378.575 42.7566 378.444 42.6548C378.314 42.553 378.154 42.4964 377.988 42.4937L367.092 42.3903C366.962 42.3878 366.834 42.3523 366.721 42.2871C366.608 42.2219 366.514 42.1291 366.446 42.0174L360.909 32.6328C360.824 32.4909 360.694 32.3805 360.541 32.3184C360.388 32.2563 360.218 32.2459 360.058 32.2887C359.898 32.3316 359.757 32.4253 359.655 32.5558C359.553 32.6863 359.496 32.8465 359.494 33.012L359.39 43.908C359.388 44.0384 359.352 44.1661 359.287 44.279C359.222 44.392 359.129 44.4865 359.018 44.5539L349.633 50.0914C349.491 50.1765 349.381 50.3056 349.318 50.459C349.256 50.6125 349.246 50.782 349.289 50.9419C349.332 51.1018 349.425 51.2434 349.556 51.3452C349.686 51.4471 349.847 51.5036 350.012 51.5063Z" fill="white" stroke="white" stroke-width="0.125" stroke-linecap="round" stroke-linejoin="round"/>
<path d="M66.012 303.506L76.9081 303.61C77.0385 303.612 77.1661 303.648 77.2791 303.713C77.392 303.778 77.4866 303.871 77.554 303.983L83.0915 313.367C83.1766 313.509 83.3056 313.62 83.4591 313.682C83.6125 313.744 83.7821 313.754 83.9419 313.711C84.1018 313.668 84.2434 313.575 84.3453 313.444C84.4471 313.314 84.5037 313.154 84.5064 312.988L84.6097 302.092C84.6122 301.962 84.6478 301.834 84.713 301.721C84.7782 301.608 84.871 301.513 84.9826 301.446L94.3672 295.909C94.5092 295.823 94.6196 295.694 94.6817 295.541C94.7438 295.388 94.7542 295.218 94.7113 295.058C94.6685 294.898 94.5747 294.757 94.4442 294.655C94.3137 294.553 94.1536 294.496 93.9881 294.494L83.092 294.39C82.9616 294.388 82.834 294.352 82.7211 294.287C82.6081 294.222 82.5135 294.129 82.4462 294.017L76.9087 284.633C76.8235 284.491 76.6945 284.38 76.541 284.318C76.3876 284.256 76.2181 284.246 76.0582 284.289C75.8983 284.332 75.7567 284.425 75.6549 284.556C75.553 284.686 75.4965 284.846 75.4937 285.012L75.3904 295.908C75.3879 296.038 75.3524 296.166 75.2872 296.279C75.222 296.392 75.1292 296.487 75.0175 296.554L65.6329 302.091C65.4909 302.177 65.3805 302.306 65.3185 302.459C65.2564 302.612 65.246 302.782 65.2888 302.942C65.3316 303.102 65.4254 303.243 65.5559 303.345C65.6864 303.447 65.8465 303.504 66.012 303.506Z" fill="white" stroke="white" stroke-width="0.125" stroke-linecap="round" stroke-linejoin="round"/>
<path d="M967.444 227.981C969.401 227.981 970.987 226.395 970.987 224.437C970.987 222.48 969.401 220.894 967.444 220.894C965.486 220.894 963.9 222.48 963.9 224.437C963.9 226.395 965.486 227.981 967.444 227.981Z" fill="#F0FFFC"/>
<path d="M957.403 608.934C959.36 608.934 960.947 607.348 960.947 605.391C960.947 603.434 959.36 601.847 957.403 601.847C955.446 601.847 953.859 603.434 953.859 605.391C953.859 607.348 955.446 608.934 957.403 608.934Z" fill="#F0FFFC"/>
<path d="M826.284 735.328C828.242 735.328 829.828 733.742 829.828 731.784C829.828 729.827 828.242 728.241 826.284 728.241C824.327 728.241 822.741 729.827 822.741 731.784C822.741 733.742 824.327 735.328 826.284 735.328Z" fill="#F0FFFC"/>
<path d="M1088.52 514.434C1090.48 514.434 1092.07 512.848 1092.07 510.891C1092.07 508.934 1090.48 507.347 1088.52 507.347C1086.56 507.347 1084.98 508.934 1084.98 510.891C1084.98 512.848 1086.56 514.434 1088.52 514.434Z" fill="#F0FFFC"/>
<path d="M1383.24 563.456C1385.2 563.456 1386.79 561.87 1386.79 559.913C1386.79 557.955 1385.2 556.369 1383.24 556.369C1381.29 556.369 1379.7 557.955 1379.7 559.913C1379.7 561.87 1381.29 563.456 1383.24 563.456Z" fill="#F0FFFC"/>
<path d="M278.544 122.087C280.501 122.087 282.087 120.501 282.087 118.544C282.087 116.587 280.501 115 278.544 115C276.587 115 275 116.587 275 118.544C275 120.501 276.587 122.087 278.544 122.087Z" fill="#F0FFFC"/>
<path d="M80.325 122.259C82.2822 122.259 83.8687 120.673 83.8687 118.716C83.8687 116.758 82.2822 115.172 80.325 115.172C78.3678 115.172 76.7812 116.758 76.7812 118.716C76.7812 120.673 78.3678 122.259 80.325 122.259Z" fill="#F0FFFC"/>
<path d="M499.078 56.7C501.035 56.7 502.622 55.1134 502.622 53.1562C502.622 51.1991 501.035 49.6125 499.078 49.6125C497.121 49.6125 495.534 51.1991 495.534 53.1562C495.534 55.1134 497.121 56.7 499.078 56.7Z" fill="#F0FFFC"/>
<path d="M478.997 427.613C480.954 427.613 482.541 426.026 482.541 424.069C482.541 422.112 480.954 420.525 478.997 420.525C477.04 420.525 475.453 422.112 475.453 424.069C475.453 426.026 477.04 427.613 478.997 427.613Z" fill="#F0FFFC"/>
<path d="M1139.54 103.087C1141.5 103.087 1143.09 101.501 1143.09 99.5437C1143.09 97.5866 1141.5 96 1139.54 96C1137.59 96 1136 97.5866 1136 99.5437C1136 101.501 1137.59 103.087 1139.54 103.087Z" fill="#F0FFFC"/>
<path d="M930.825 411.075C932.782 411.075 934.369 409.488 934.369 407.531C934.369 405.574 932.782 403.988 930.825 403.988C928.868 403.988 927.281 405.574 927.281 407.531C927.281 409.488 928.868 411.075 930.825 411.075Z" fill="#F0FFFC"/>
<path d="M682.762 160.65C684.72 160.65 686.306 159.063 686.306 157.106C686.306 155.149 684.72 153.562 682.762 153.562C680.805 153.562 679.219 155.149 679.219 157.106C679.219 159.063 680.805 160.65 682.762 160.65Z" stroke="#F0FFFC" stroke-width="3.54375" stroke-miterlimit="10"/>
<path d="M449.466 549.281C451.423 549.281 453.009 547.695 453.009 545.737C453.009 543.78 451.423 542.194 449.466 542.194C447.508 542.194 445.922 543.78 445.922 545.737C445.922 547.695 447.508 549.281 449.466 549.281Z" fill="#F0FFFC"/>
<path d="M1214.92 351.422C1216.87 351.422 1218.46 349.835 1218.46 347.878C1218.46 345.921 1216.87 344.334 1214.92 344.334C1212.96 344.334 1211.37 345.921 1211.37 347.878C1211.37 349.835 1212.96 351.422 1214.92 351.422Z" fill="#F0FFFC"/>
<path d="M184.544 181.087C186.501 181.087 188.087 179.501 188.087 177.544C188.087 175.587 186.501 174 184.544 174C182.587 174 181 175.587 181 177.544C181 179.501 182.587 181.087 184.544 181.087Z" fill="#F0FFFC"/>
<path d="M62.0157 392.766C63.9728 392.766 65.5594 391.179 65.5594 389.222C65.5594 387.265 63.9728 385.678 62.0157 385.678C60.0585 385.678 58.4719 387.265 58.4719 389.222C58.4719 391.179 60.0585 392.766 62.0157 392.766Z" fill="#F0FFFC"/>
<path d="M855.012 75.5063L865.908 75.6097C866.038 75.6122 866.166 75.6477 866.279 75.7129C866.392 75.7781 866.486 75.8709 866.554 75.9826L872.091 85.3672C872.176 85.5092 872.305 85.6195 872.459 85.6816C872.612 85.7437 872.782 85.7541 872.942 85.7113C873.102 85.6684 873.243 85.5747 873.345 85.4442C873.447 85.3137 873.503 85.1536 873.506 84.988L873.61 74.092C873.612 73.9616 873.648 73.8339 873.713 73.721C873.778 73.608 873.871 73.5135 873.982 73.4461L883.367 67.9086C883.509 67.8235 883.619 67.6944 883.681 67.541C883.744 67.3875 883.754 67.218 883.711 67.0581C883.668 66.8982 883.574 66.7566 883.444 66.6548C883.314 66.553 883.153 66.4964 882.988 66.4937L872.092 66.3903C871.961 66.3878 871.834 66.3523 871.721 66.2871C871.608 66.2219 871.513 66.1291 871.446 66.0174L865.908 56.6328C865.823 56.4909 865.694 56.3805 865.541 56.3184C865.387 56.2563 865.218 56.2459 865.058 56.2887C864.898 56.3316 864.756 56.4253 864.655 56.5558C864.553 56.6863 864.496 56.8465 864.493 57.012L864.39 67.908C864.388 68.0384 864.352 68.1661 864.287 68.279C864.222 68.392 864.129 68.4865 864.017 68.5539L854.633 74.0914C854.491 74.1765 854.38 74.3056 854.318 74.459C854.256 74.6125 854.246 74.782 854.289 74.9419C854.331 75.1018 854.425 75.2434 854.556 75.3452C854.686 75.4471 854.846 75.5036 855.012 75.5063Z" fill="white" stroke="white" stroke-width="0.125" stroke-linecap="round" stroke-linejoin="round"/>
<path d="M372.094 770.175C375.682 770.175 378.591 767.266 378.591 763.678C378.591 760.09 375.682 757.181 372.094 757.181C368.506 757.181 365.597 760.09 365.597 763.678C365.597 767.266 368.506 770.175 372.094 770.175Z" fill="#F0FFFC"/>
<path d="M1151.72 479.587C1155.31 479.587 1158.22 476.679 1158.22 473.091C1158.22 469.502 1155.31 466.594 1151.72 466.594C1148.13 466.594 1145.22 469.502 1145.22 473.091C1145.22 476.679 1148.13 479.587 1151.72 479.587Z" fill="#F0FFFC"/>
<path d="M862.903 507.347C866.491 507.347 869.4 504.438 869.4 500.85C869.4 497.262 866.491 494.353 862.903 494.353C859.315 494.353 856.406 497.262 856.406 500.85C856.406 504.438 859.315 507.347 862.903 507.347Z" fill="#F0FFFC"/>
<path d="M799.116 637.284C802.704 637.284 805.612 634.376 805.612 630.788C805.612 627.199 802.704 624.291 799.116 624.291C795.527 624.291 792.619 627.199 792.619 630.788C792.619 634.376 795.527 637.284 799.116 637.284Z" fill="#F0FFFC"/>
<path d="M1061.35 289.406C1062.93 288.674 1064.5 288.29 1066.08 288.018C1067.65 287.758 1069.23 287.64 1070.8 287.634C1072.38 287.634 1073.95 287.753 1075.53 288.012C1077.1 288.284 1078.68 288.668 1080.25 289.406C1078.68 290.145 1077.1 290.528 1075.53 290.8C1073.95 291.06 1072.38 291.178 1070.8 291.178C1069.23 291.178 1067.65 291.054 1066.08 290.794C1064.5 290.523 1062.93 290.139 1061.35 289.406Z" fill="#F0FFFC"/>
<path d="M56.7 567C58.2769 566.268 59.848 565.884 61.425 565.612C63.0019 565.352 64.573 565.234 66.15 565.228C67.7269 565.228 69.298 565.346 70.875 565.606C72.4519 565.878 74.023 566.262 75.6 567C74.023 567.738 72.4519 568.122 70.875 568.394C69.298 568.654 67.7269 568.778 66.15 568.772C64.573 568.772 63.0019 568.648 61.425 568.388C59.848 568.116 58.2769 567.732 56.7 567Z" fill="#F0FFFC"/>
<path d="M704.551 64.3781C705.886 63.7048 707.22 63.3504 708.555 63.1024C709.89 62.8602 711.225 62.7539 712.56 62.748C713.894 62.748 715.229 62.8543 716.564 63.0965C717.899 63.3504 719.234 63.6989 720.569 64.3781C719.234 65.0573 717.899 65.4117 716.564 65.6598C715.229 65.896 713.894 66.0082 712.56 66.0082C711.225 66.0082 709.89 65.896 708.555 65.6539C707.22 65.4058 705.886 65.0514 704.551 64.3781Z" fill="#F0FFFC"/>
<path d="M1311.78 337.838C1313.36 337.105 1314.93 336.721 1316.5 336.45C1318.08 336.19 1319.65 336.072 1321.23 336.066C1322.81 336.066 1324.38 336.184 1325.95 336.444C1327.53 336.715 1329.1 337.099 1330.68 337.838C1329.1 338.576 1327.53 338.96 1325.95 339.231C1324.38 339.491 1322.81 339.615 1321.23 339.609C1319.65 339.609 1318.08 339.485 1316.5 339.226C1314.93 338.954 1313.36 338.57 1311.78 337.838Z" fill="#F0FFFC"/>
<path d="M703.434 556.369C707.023 556.369 709.931 553.46 709.931 549.872C709.931 546.284 707.023 543.375 703.434 543.375C699.846 543.375 696.938 546.284 696.938 549.872C696.938 553.46 699.846 556.369 703.434 556.369Z" fill="#F0FFFC"/>
<path d="M585.9 485.494C587.857 485.494 589.444 483.907 589.444 481.95C589.444 479.993 587.857 478.406 585.9 478.406C583.943 478.406 582.356 479.993 582.356 481.95C582.356 483.907 583.943 485.494 585.9 485.494Z" fill="#F0FFFC"/>
<path d="M483.131 647.916C485.088 647.916 486.675 646.329 486.675 644.372C486.675 642.415 485.088 640.828 483.131 640.828C481.174 640.828 479.587 642.415 479.587 644.372C479.587 646.329 481.174 647.916 483.131 647.916Z" stroke="#F0FFFC" stroke-width="3.54375" stroke-miterlimit="10"/>
<defs>
<radialGradient id="paint0_radial_196_519" cx="0" cy="0" r="1" gradientUnits="userSpaceOnUse" gradientTransform="translate(710.217 534.04) scale(668.483 668.483)">
<stop stop-color="#4564A4"/>
<stop offset="0.0481" stop-color="#4564A4"/>
<stop offset="0.457" stop-color="#010817"/>
<stop offset="0.6521"/>
<stop offset="1"/>
</radialGradient>
</defs>
</svg>
