<svg width="39" height="38" viewBox="0 0 39 38" fill="none" xmlns="http://www.w3.org/2000/svg">
<rect opacity="0.15" x="1.20703" y="0.75" width="36.3646" height="36.3646" rx="18.1823" stroke="white" stroke-width="1.5"/>
<path fill-rule="evenodd" clip-rule="evenodd" d="M15.9913 25.2429H13.0786V16.5049H15.9913V25.2429Z" fill="white"/>
<path fill-rule="evenodd" clip-rule="evenodd" d="M14.5263 14.5631H14.5097C13.6405 14.5631 13.0786 13.9155 13.0786 13.1062C13.0786 12.2798 13.6576 11.6504 14.5433 11.6504C15.429 11.6504 15.9745 12.2798 15.9913 13.1062C15.9913 13.9155 15.429 14.5631 14.5263 14.5631Z" fill="white"/>
<path fill-rule="evenodd" clip-rule="evenodd" d="M26.671 25.2426H23.8089V20.6752C23.8089 19.5279 23.3947 18.7451 22.3585 18.7451C21.5678 18.7451 21.0968 19.2728 20.8899 19.7826C20.8142 19.9653 20.7957 20.2198 20.7957 20.4749V25.2429H17.9331C17.9331 25.2429 17.9708 17.5067 17.9331 16.7056H20.7957V17.9148C21.1756 17.3335 21.8559 16.5049 23.3756 16.5049C25.2591 16.5049 26.6711 17.7253 26.6711 20.3476L26.671 25.2426Z" fill="white"/>
</svg>
